<svg width="16" height="17" viewBox="0 0 16 17" fill="none" xmlns="http://www.w3.org/2000/svg">
<g clip-path="url(#clip0_564_2505)">
<path d="M13.9997 14.1266L11.009 11.1306L13.9997 14.1266ZM12.6663 7.12663C12.6663 8.62952 12.0693 10.0709 11.0066 11.1336C9.94391 12.1963 8.50257 12.7933 6.99967 12.7933C5.49678 12.7933 4.05544 12.1963 2.99274 11.1336C1.93003 10.0709 1.33301 8.62952 1.33301 7.12663C1.33301 5.62373 1.93003 4.1824 2.99274 3.11969C4.05544 2.05698 5.49678 1.45996 6.99967 1.45996C8.50257 1.45996 9.94391 2.05698 11.0066 3.11969C12.0693 4.1824 12.6663 5.62373 12.6663 7.12663V7.12663Z" stroke="#9E9E9E" stroke-width="1.5" stroke-linecap="round" stroke-linejoin="round"/>
</g>
<defs>
<clipPath id="clip0_564_2505">
<rect width="16" height="16" fill="white" transform="translate(0 0.126953)"/>
</clipPath>
</defs>
</svg>
