<svg width="688" height="870" viewBox="0 0 688 870" fill="none" xmlns="http://www.w3.org/2000/svg">
<g filter="url(#filter0_d_542_196)">
<path d="M14 49C14 27.4609 31.4609 10 53 10H635C656.539 10 674 27.4609 674 49V535.767C674 555.569 659.16 572.228 639.49 574.507L14 647V49Z" fill="white"/>
</g>
<g filter="url(#filter1_d_542_196)">
<path d="M674 813C674 834.539 656.539 852 635 852H53C31.4609 852 14 834.539 14 813V717.622C14 697.958 28.6393 681.37 48.1508 678.925L674 600.5V813Z" fill="white"/>
</g>
<defs>
<filter id="filter0_d_542_196" x="0" y="0" width="688" height="665" filterUnits="userSpaceOnUse" color-interpolation-filters="sRGB">
<feFlood flood-opacity="0" result="BackgroundImageFix"/>
<feColorMatrix in="SourceAlpha" type="matrix" values="0 0 0 0 0 0 0 0 0 0 0 0 0 0 0 0 0 0 127 0" result="hardAlpha"/>
<feOffset dy="4"/>
<feGaussianBlur stdDeviation="7"/>
<feComposite in2="hardAlpha" operator="out"/>
<feColorMatrix type="matrix" values="0 0 0 0 0 0 0 0 0 0 0 0 0 0 0 0 0 0 0.68 0"/>
<feBlend mode="normal" in2="BackgroundImageFix" result="effect1_dropShadow_542_196"/>
<feBlend mode="normal" in="SourceGraphic" in2="effect1_dropShadow_542_196" result="shape"/>
</filter>
<filter id="filter1_d_542_196" x="0" y="590.5" width="688" height="279.5" filterUnits="userSpaceOnUse" color-interpolation-filters="sRGB">
<feFlood flood-opacity="0" result="BackgroundImageFix"/>
<feColorMatrix in="SourceAlpha" type="matrix" values="0 0 0 0 0 0 0 0 0 0 0 0 0 0 0 0 0 0 127 0" result="hardAlpha"/>
<feOffset dy="4"/>
<feGaussianBlur stdDeviation="7"/>
<feComposite in2="hardAlpha" operator="out"/>
<feColorMatrix type="matrix" values="0 0 0 0 0 0 0 0 0 0 0 0 0 0 0 0 0 0 0.68 0"/>
<feBlend mode="normal" in2="BackgroundImageFix" result="effect1_dropShadow_542_196"/>
<feBlend mode="normal" in="SourceGraphic" in2="effect1_dropShadow_542_196" result="shape"/>
</filter>
</defs>
</svg>
