<svg width="8" height="9" viewBox="0 0 8 9" fill="none" xmlns="http://www.w3.org/2000/svg">
<path d="M3.62326 6.19695L1.22526 3.45595C0.942261 3.13345 1.17226 2.62695 1.60176 2.62695H6.39776C6.49388 2.62687 6.58799 2.6545 6.66882 2.70652C6.74964 2.75855 6.81376 2.83277 6.85349 2.9203C6.89321 3.00783 6.90687 3.10495 6.89282 3.20004C6.87877 3.29513 6.83761 3.38416 6.77426 3.45645L4.37626 6.19645C4.32933 6.25016 4.27145 6.2932 4.20652 6.32269C4.14158 6.35219 4.07108 6.36744 3.99976 6.36744C3.92844 6.36744 3.85794 6.35219 3.79301 6.32269C3.72807 6.2932 3.67019 6.25016 3.62326 6.19645V6.19695Z" fill="#9E9E9E"/>
</svg>
