<svg width="8" height="9" viewBox="0 0 8 9" fill="none" xmlns="http://www.w3.org/2000/svg">
<path d="M3.62326 6.07L1.22526 3.329C0.942261 3.0065 1.17226 2.5 1.60176 2.5H6.39776C6.49388 2.49992 6.58799 2.52754 6.66882 2.57957C6.74964 2.6316 6.81376 2.70582 6.85349 2.79335C6.89321 2.88087 6.90687 2.978 6.89282 3.07309C6.87877 3.16818 6.83761 3.2572 6.77426 3.3295L4.37626 6.0695C4.32933 6.1232 4.27145 6.16625 4.20652 6.19574C4.14158 6.22523 4.07108 6.24049 3.99976 6.24049C3.92844 6.24049 3.85794 6.22523 3.79301 6.19574C3.72807 6.16625 3.67019 6.1232 3.62326 6.0695V6.07Z" fill="#9E9E9E"/>
</svg>
