<svg width="8" height="9" viewBox="0 0 8 9" fill="none" xmlns="http://www.w3.org/2000/svg">
<path d="M3.62326 6.19647L1.22526 3.45547C0.942261 3.13297 1.17226 2.62647 1.60176 2.62647H6.39776C6.49388 2.62638 6.58799 2.65401 6.66882 2.70604C6.74964 2.75806 6.81376 2.83228 6.85349 2.91981C6.89321 3.00734 6.90687 3.10446 6.89282 3.19955C6.87877 3.29464 6.83761 3.38367 6.77426 3.45596L4.37626 6.19597C4.32933 6.24967 4.27145 6.29271 4.20652 6.3222C4.14158 6.3517 4.07108 6.36696 3.99976 6.36696C3.92844 6.36696 3.85794 6.3517 3.79301 6.3222C3.72807 6.29271 3.67019 6.24967 3.62326 6.19597V6.19647Z" fill="#9E9E9E"/>
</svg>
