<svg width="16" height="16" viewBox="0 0 16 16" fill="none" xmlns="http://www.w3.org/2000/svg">
<path d="M4.15162 7.33307H11.8496C12.4243 7.33307 12.7296 6.65307 12.3476 6.22307L8.49895 1.89307C8.43653 1.82261 8.35986 1.76619 8.27401 1.72756C8.18816 1.68892 8.0951 1.66895 8.00096 1.66895C7.90682 1.66895 7.81375 1.68892 7.7279 1.72756C7.64205 1.76619 7.56538 1.82261 7.50295 1.89307L3.65295 6.22307C3.27095 6.65307 3.57629 7.33307 4.15162 7.33307ZM7.50229 14.1057C7.56472 14.1762 7.64139 14.2326 7.72723 14.2713C7.81308 14.3099 7.90615 14.3299 8.00029 14.3299C8.09443 14.3299 8.1875 14.3099 8.27334 14.2713C8.35919 14.2326 8.43586 14.1762 8.49829 14.1057L12.347 9.77574C12.7296 9.3464 12.4243 8.6664 11.849 8.6664H4.15162C3.57695 8.6664 3.27162 9.3464 3.65362 9.7764L7.50229 14.1057Z" fill="#9E9E9E"/>
</svg>
