<svg width="16" height="17" viewBox="0 0 16 17" fill="none" xmlns="http://www.w3.org/2000/svg">
<path d="M4.15162 7.96002H11.8496C12.4243 7.96002 12.7296 7.28002 12.3476 6.85002L8.49895 2.52002C8.43653 2.44956 8.35986 2.39315 8.27401 2.35451C8.18816 2.31588 8.0951 2.2959 8.00096 2.2959C7.90682 2.2959 7.81375 2.31588 7.7279 2.35451C7.64205 2.39315 7.56538 2.44956 7.50295 2.52002L3.65295 6.85002C3.27095 7.28002 3.57629 7.96002 4.15162 7.96002ZM7.50229 14.7327C7.56472 14.8032 7.64139 14.8596 7.72723 14.8982C7.81308 14.9368 7.90615 14.9568 8.00029 14.9568C8.09443 14.9568 8.1875 14.9368 8.27334 14.8982C8.35919 14.8596 8.43586 14.8032 8.49829 14.7327L12.347 10.4027C12.7296 9.97336 12.4243 9.29336 11.849 9.29336H4.15162C3.57695 9.29336 3.27162 9.97336 3.65362 10.4034L7.50229 14.7327Z" fill="#9E9E9E"/>
</svg>
