<svg width="17" height="17" viewBox="0 0 17 17" fill="none" xmlns="http://www.w3.org/2000/svg">
<path d="M4.81764 7.46002H12.5156C13.0903 7.46002 13.3956 6.78002 13.0136 6.35002L9.16497 2.02002C9.10254 1.94956 9.02587 1.89315 8.94003 1.85451C8.85418 1.81588 8.76111 1.7959 8.66697 1.7959C8.57283 1.7959 8.47976 1.81588 8.39392 1.85451C8.30807 1.89315 8.2314 1.94956 8.16897 2.02002L4.31897 6.35002C3.93697 6.78002 4.2423 7.46002 4.81764 7.46002ZM8.1683 14.2327C8.23073 14.3032 8.3074 14.3596 8.39325 14.3982C8.4791 14.4368 8.57216 14.4568 8.6663 14.4568C8.76044 14.4568 8.85351 14.4368 8.93936 14.3982C9.02521 14.3596 9.10188 14.3032 9.1643 14.2327L13.013 9.90269C13.3956 9.47336 13.0903 8.79336 12.515 8.79336H4.81764C4.24297 8.79336 3.93764 9.47336 4.31964 9.90336L8.1683 14.2327Z" fill="#9E9E9E"/>
</svg>
