<svg width="17" height="17" viewBox="0 0 17 17" fill="none" xmlns="http://www.w3.org/2000/svg">
<path d="M5.00904 7.83356H12.707C13.2817 7.83356 13.587 7.15356 13.205 6.72356L9.35638 2.39356C9.29395 2.3231 9.21728 2.26668 9.13143 2.22805C9.04559 2.18941 8.95252 2.16943 8.85838 2.16943C8.76424 2.16943 8.67117 2.18941 8.58532 2.22805C8.49948 2.26668 8.4228 2.3231 8.36038 2.39356L4.51038 6.72356C4.12838 7.15356 4.43371 7.83356 5.00904 7.83356ZM8.35971 14.6062C8.42214 14.6767 8.49881 14.7331 8.58466 14.7717C8.6705 14.8104 8.76357 14.8304 8.85771 14.8304C8.95185 14.8304 9.04492 14.8104 9.13076 14.7717C9.21661 14.7331 9.29328 14.6767 9.35571 14.6062L13.2044 10.2762C13.587 9.84689 13.2817 9.16689 12.7064 9.16689H5.00904C4.43438 9.16689 4.12904 9.84689 4.51104 10.2769L8.35971 14.6062Z" fill="#9E9E9E"/>
</svg>
