<svg width="17" height="16" viewBox="0 0 17 16" fill="none" xmlns="http://www.w3.org/2000/svg">
<path d="M4.86647 7.33356H12.5645C13.1391 7.33356 13.4445 6.65356 13.0625 6.22356L9.2138 1.89356C9.15137 1.8231 9.0747 1.76668 8.98885 1.72805C8.90301 1.68941 8.80994 1.66943 8.7158 1.66943C8.62166 1.66943 8.52859 1.68941 8.44274 1.72805C8.3569 1.76668 8.28023 1.8231 8.2178 1.89356L4.3678 6.22356C3.9858 6.65356 4.29113 7.33356 4.86647 7.33356ZM8.21713 14.1062C8.27956 14.1767 8.35623 14.2331 8.44208 14.2717C8.52792 14.3104 8.62099 14.3304 8.71513 14.3304C8.80927 14.3304 8.90234 14.3104 8.98819 14.2717C9.07403 14.2331 9.1507 14.1767 9.21313 14.1062L13.0618 9.77623C13.4445 9.34689 13.1391 8.66689 12.5638 8.66689H4.86647C4.2918 8.66689 3.98647 9.34689 4.36847 9.77689L8.21713 14.1062Z" fill="#9E9E9E"/>
</svg>
