<svg width="17" height="16" viewBox="0 0 17 16" fill="none" xmlns="http://www.w3.org/2000/svg">
<path d="M4.72389 7.33356H12.4219C12.9966 7.33356 13.3019 6.65356 12.9199 6.22356L9.07122 1.89356C9.00879 1.8231 8.93212 1.76668 8.84628 1.72805C8.76043 1.68941 8.66736 1.66943 8.57322 1.66943C8.47908 1.66943 8.38601 1.68941 8.30017 1.72805C8.21432 1.76668 8.13765 1.8231 8.07522 1.89356L4.22522 6.22356C3.84322 6.65356 4.14855 7.33356 4.72389 7.33356ZM8.07455 14.1062C8.13698 14.1767 8.21365 14.2331 8.2995 14.2717C8.38535 14.3104 8.47841 14.3304 8.57255 14.3304C8.66669 14.3304 8.75976 14.3104 8.84561 14.2717C8.93146 14.2331 9.00813 14.1767 9.07055 14.1062L12.9192 9.77623C13.3019 9.34689 12.9966 8.66689 12.4212 8.66689H4.72389C4.14922 8.66689 3.84389 9.34689 4.22589 9.77689L8.07455 14.1062Z" fill="#9E9E9E"/>
</svg>
