<svg width="25" height="25" viewBox="0 0 25 25" fill="none" xmlns="http://www.w3.org/2000/svg">
<path d="M11.834 4.12695H4.83398C4.30355 4.12695 3.79484 4.33767 3.41977 4.71274C3.0447 5.08781 2.83398 5.59652 2.83398 6.12695V20.127C2.83398 20.6574 3.0447 21.1661 3.41977 21.5412C3.79484 21.9162 4.30355 22.127 4.83398 22.127H18.834C19.3644 22.127 19.8731 21.9162 20.2482 21.5412C20.6233 21.1661 20.834 20.6574 20.834 20.127V13.127" stroke="#624DE3" stroke-width="2" stroke-linecap="round" stroke-linejoin="round"/>
<path d="M19.334 2.62718C19.7318 2.22936 20.2714 2.00586 20.834 2.00586C21.3966 2.00586 21.9362 2.22936 22.334 2.62718C22.7318 3.025 22.9553 3.56457 22.9553 4.12718C22.9553 4.68979 22.7318 5.22935 22.334 5.62718L12.834 15.1272L8.83398 16.1272L9.83398 12.1272L19.334 2.62718Z" stroke="#624DE3" stroke-width="2" stroke-linecap="round" stroke-linejoin="round"/>
</svg>
