<svg width="25" height="25" viewBox="0 0 25 25" fill="none" xmlns="http://www.w3.org/2000/svg">
<path d="M11.8564 4.5H4.85645C4.32601 4.5 3.8173 4.71071 3.44223 5.08579C3.06716 5.46086 2.85645 5.96957 2.85645 6.5V20.5C2.85645 21.0304 3.06716 21.5391 3.44223 21.9142C3.8173 22.2893 4.32601 22.5 4.85645 22.5H18.8564C19.3869 22.5 19.8956 22.2893 20.2707 21.9142C20.6457 21.5391 20.8564 21.0304 20.8564 20.5V13.5" stroke="#624DE3" stroke-width="2" stroke-linecap="round" stroke-linejoin="round"/>
<path d="M19.3564 3.00023C19.7543 2.6024 20.2938 2.37891 20.8564 2.37891C21.4191 2.37891 21.9586 2.6024 22.3564 3.00023C22.7543 3.39805 22.9778 3.93762 22.9778 4.50023C22.9778 5.06284 22.7543 5.6024 22.3564 6.00023L12.8564 15.5002L8.85645 16.5002L9.85645 12.5002L19.3564 3.00023Z" stroke="#624DE3" stroke-width="2" stroke-linecap="round" stroke-linejoin="round"/>
</svg>
