<svg width="25" height="25" viewBox="0 0 25 25" fill="none" xmlns="http://www.w3.org/2000/svg">
<path d="M11.834 4.12646H4.83398C4.30355 4.12646 3.79484 4.33718 3.41977 4.71225C3.0447 5.08732 2.83398 5.59603 2.83398 6.12646V20.1265C2.83398 20.6569 3.0447 21.1656 3.41977 21.5407C3.79484 21.9158 4.30355 22.1265 4.83398 22.1265H18.834C19.3644 22.1265 19.8731 21.9158 20.2482 21.5407C20.6233 21.1656 20.834 20.6569 20.834 20.1265V13.1265" stroke="#624DE3" stroke-width="2" stroke-linecap="round" stroke-linejoin="round"/>
<path d="M19.334 2.62669C19.7318 2.22887 20.2714 2.00537 20.834 2.00537C21.3966 2.00537 21.9362 2.22887 22.334 2.62669C22.7318 3.02452 22.9553 3.56408 22.9553 4.12669C22.9553 4.6893 22.7318 5.22887 22.334 5.62669L12.834 15.1267L8.83398 16.1267L9.83398 12.1267L19.334 2.62669Z" stroke="#624DE3" stroke-width="2" stroke-linecap="round" stroke-linejoin="round"/>
</svg>
