<svg width="25" height="25" viewBox="0 0 25 25" fill="none" xmlns="http://www.w3.org/2000/svg">
<path d="M11.8574 4.5H4.85742C4.32699 4.5 3.81828 4.71071 3.44321 5.08579C3.06814 5.46086 2.85742 5.96957 2.85742 6.5V20.5C2.85742 21.0304 3.06814 21.5391 3.44321 21.9142C3.81828 22.2893 4.32699 22.5 4.85742 22.5H18.8574C19.3879 22.5 19.8966 22.2893 20.2716 21.9142C20.6467 21.5391 20.8574 21.0304 20.8574 20.5V13.5" stroke="#624DE3" stroke-width="2" stroke-linecap="round" stroke-linejoin="round"/>
<path d="M19.3574 3.00023C19.7552 2.6024 20.2948 2.37891 20.8574 2.37891C21.42 2.37891 21.9596 2.6024 22.3574 3.00023C22.7552 3.39805 22.9787 3.93762 22.9787 4.50023C22.9787 5.06284 22.7552 5.6024 22.3574 6.00023L12.8574 15.5002L8.85742 16.5002L9.85742 12.5002L19.3574 3.00023Z" stroke="#624DE3" stroke-width="2" stroke-linecap="round" stroke-linejoin="round"/>
</svg>
