<svg width="16" height="17" viewBox="0 0 16 17" fill="none" xmlns="http://www.w3.org/2000/svg">
<path d="M8.5 2.87695C8.5 2.67804 8.42098 2.48728 8.28033 2.34662C8.13968 2.20597 7.94891 2.12695 7.75 2.12695C7.55109 2.12695 7.36032 2.20597 7.21967 2.34662C7.07902 2.48728 7 2.67804 7 2.87695V7.12695H2.75C2.55109 7.12695 2.36032 7.20597 2.21967 7.34662C2.07902 7.48728 2 7.67804 2 7.87695C2 8.07587 2.07902 8.26663 2.21967 8.40728C2.36032 8.54794 2.55109 8.62695 2.75 8.62695H7V12.877C7 13.0759 7.07902 13.2666 7.21967 13.4073C7.36032 13.5479 7.55109 13.627 7.75 13.627C7.94891 13.627 8.13968 13.5479 8.28033 13.4073C8.42098 13.2666 8.5 13.0759 8.5 12.877V8.62695H12.75C12.9489 8.62695 13.1397 8.54794 13.2803 8.40728C13.421 8.26663 13.5 8.07587 13.5 7.87695C13.5 7.67804 13.421 7.48728 13.2803 7.34662C13.1397 7.20597 12.9489 7.12695 12.75 7.12695H8.5V2.87695Z" fill="white"/>
</svg>
