<svg width="16" height="17" viewBox="0 0 16 17" fill="none" xmlns="http://www.w3.org/2000/svg">
<path d="M8.5 2.87646C8.5 2.67755 8.42098 2.48679 8.28033 2.34613C8.13968 2.20548 7.94891 2.12646 7.75 2.12646C7.55109 2.12646 7.36032 2.20548 7.21967 2.34613C7.07902 2.48679 7 2.67755 7 2.87646V7.12646H2.75C2.55109 7.12646 2.36032 7.20548 2.21967 7.34613C2.07902 7.48679 2 7.67755 2 7.87646C2 8.07538 2.07902 8.26614 2.21967 8.40679C2.36032 8.54745 2.55109 8.62646 2.75 8.62646H7V12.8765C7 13.0754 7.07902 13.2661 7.21967 13.4068C7.36032 13.5474 7.55109 13.6265 7.75 13.6265C7.94891 13.6265 8.13968 13.5474 8.28033 13.4068C8.42098 13.2661 8.5 13.0754 8.5 12.8765V8.62646H12.75C12.9489 8.62646 13.1397 8.54745 13.2803 8.40679C13.421 8.26614 13.5 8.07538 13.5 7.87646C13.5 7.67755 13.421 7.48679 13.2803 7.34613C13.1397 7.20548 12.9489 7.12646 12.75 7.12646H8.5V2.87646Z" fill="white"/>
</svg>
