<svg width="19" height="21" viewBox="0 0 19 21" fill="none" xmlns="http://www.w3.org/2000/svg">
<path d="M9.47989 15.95C13.5392 15.95 16.8299 12.6593 16.8299 8.60001C16.8299 4.54071 13.5392 1.25 9.47989 1.25C5.4206 1.25 2.12988 4.54071 2.12988 8.60001C2.12988 12.6593 5.4206 15.95 9.47989 15.95Z" stroke="black" stroke-width="1.5" stroke-linecap="round" stroke-linejoin="round"/>
<path d="M3.5 13L1 17.27L3.95001 17.11L5.29001 19.74L7.5 16C5.83 15.57 4.49 14.36 3.5 13Z" stroke="black" stroke-width="1.5" stroke-linecap="round" stroke-linejoin="round"/>
<path d="M15.5 13C14.52 14.37 13.17 15.56 11.5 16L13.71 19.75L15.05 17.12L18 17.28L15.5 13Z" stroke="black" stroke-width="1.5" stroke-linecap="round" stroke-linejoin="round"/>
<path d="M13.6805 7.67048C13.8705 7.49048 13.7605 7.16047 13.5005 7.13047L11.0905 6.78046C10.9905 6.76046 10.9005 6.70047 10.8505 6.60047L9.77045 4.41047C9.65045 4.17047 9.31047 4.17047 9.20047 4.41047L8.12046 6.60047C8.07046 6.69047 7.98047 6.76046 7.88047 6.78046L5.47046 7.13047C5.21046 7.17047 5.11047 7.49048 5.29047 7.67048L7.04047 9.37046C7.12047 9.45046 7.15047 9.55046 7.13047 9.65046L6.72046 12.0505C6.67046 12.3105 6.95046 12.5105 7.18046 12.3805L9.34046 11.2505C9.43046 11.2005 9.55048 11.2005 9.64048 11.2505L11.8005 12.3805C12.0305 12.5005 12.3105 12.3005 12.2605 12.0505L11.8505 9.65046C11.8305 9.55046 11.8705 9.44046 11.9405 9.37046L13.6805 7.67048Z" stroke="black" stroke-width="1.5" stroke-linecap="round" stroke-linejoin="round"/>
</svg>
