<svg width="36" height="39" viewBox="0 0 36 39" fill="none" xmlns="http://www.w3.org/2000/svg">
<path d="M17.961 30.0793C25.8408 30.0793 32.2286 23.6914 32.2286 15.8116C32.2286 7.9318 25.8408 1.54395 17.961 1.54395C10.0812 1.54395 3.69336 7.9318 3.69336 15.8116C3.69336 23.6914 10.0812 30.0793 17.961 30.0793Z" fill="#797979" stroke="black" stroke-width="1.5" stroke-linecap="round" stroke-linejoin="round"/>
<path d="M6.35294 24.3525L1.5 32.6413L7.22649 32.3307L9.82766 37.436L14.1176 30.1761C10.8759 29.3414 8.27471 26.9925 6.35294 24.3525Z" fill="#797979" stroke="black" stroke-width="1.5" stroke-linecap="round" stroke-linejoin="round"/>
<path d="M29.6475 24.3525C27.7452 27.012 25.1246 29.322 21.8828 30.1761L26.1728 37.4555L28.774 32.3502L34.5005 32.6608L29.6475 24.3525Z" fill="#797979" stroke="black" stroke-width="1.5" stroke-linecap="round" stroke-linejoin="round"/>
<path d="M26.114 14.0063C26.4828 13.6569 26.2693 13.0163 25.7646 12.958L21.0863 12.2786C20.8922 12.2398 20.7175 12.1233 20.6205 11.9292L18.524 7.67803C18.291 7.21214 17.6311 7.21214 17.4175 7.67803L15.321 11.9292C15.224 12.1039 15.0493 12.2398 14.8552 12.2786L10.1769 12.958C9.67222 13.0357 9.47812 13.6569 9.82753 14.0063L13.2246 17.3062C13.3799 17.4615 13.4381 17.6557 13.3993 17.8498L12.6034 22.5086C12.5063 23.0133 13.0498 23.4016 13.4963 23.1492L17.6893 20.9557C17.864 20.8586 18.097 20.8586 18.2717 20.9557L22.4645 23.1492C22.911 23.3821 23.4546 22.9939 23.3575 22.5086L22.5616 17.8498C22.5228 17.6557 22.6005 17.4421 22.7363 17.3062L26.114 14.0063Z" fill="#797979" stroke="black" stroke-width="1.5" stroke-linecap="round" stroke-linejoin="round"/>
</svg>
