<svg width="35" height="39" viewBox="0 0 35 39" fill="none" xmlns="http://www.w3.org/2000/svg">
<path d="M17.461 30.0793C25.3408 30.0793 31.7286 23.6914 31.7286 15.8116C31.7286 7.9318 25.3408 1.54395 17.461 1.54395C9.58121 1.54395 3.19336 7.9318 3.19336 15.8116C3.19336 23.6914 9.58121 30.0793 17.461 30.0793Z" fill="#797979" stroke="black" stroke-width="1.5" stroke-linecap="round" stroke-linejoin="round"/>
<path d="M5.85294 24.3525L1 32.6413L6.72649 32.3307L9.32766 37.436L13.6176 30.1761C10.3759 29.3414 7.77471 26.9925 5.85294 24.3525Z" fill="#797979" stroke="black" stroke-width="1.5" stroke-linecap="round" stroke-linejoin="round"/>
<path d="M29.1475 24.3525C27.2452 27.012 24.6246 29.322 21.3828 30.1761L25.6728 37.4555L28.274 32.3502L34.0005 32.6608L29.1475 24.3525Z" fill="#797979" stroke="black" stroke-width="1.5" stroke-linecap="round" stroke-linejoin="round"/>
<path d="M25.614 14.0063C25.9828 13.6569 25.7693 13.0163 25.2646 12.958L20.5863 12.2786C20.3922 12.2398 20.2175 12.1233 20.1205 11.9292L18.024 7.67803C17.791 7.21214 17.1311 7.21214 16.9175 7.67803L14.821 11.9292C14.724 12.1039 14.5493 12.2398 14.3552 12.2786L9.67693 12.958C9.17222 13.0357 8.97812 13.6569 9.32753 14.0063L12.7246 17.3062C12.8799 17.4615 12.9381 17.6557 12.8993 17.8498L12.1034 22.5086C12.0063 23.0133 12.5498 23.4016 12.9963 23.1492L17.1893 20.9557C17.364 20.8586 17.597 20.8586 17.7717 20.9557L21.9645 23.1492C22.411 23.3821 22.9546 22.9939 22.8575 22.5086L22.0616 17.8498C22.0228 17.6557 22.1005 17.4421 22.2363 17.3062L25.614 14.0063Z" fill="#797979" stroke="black" stroke-width="1.5" stroke-linecap="round" stroke-linejoin="round"/>
</svg>
