<svg width="19" height="21" viewBox="0 0 19 21" fill="none" xmlns="http://www.w3.org/2000/svg">
<path d="M9.47989 15.95C13.5392 15.95 16.8299 12.6593 16.8299 8.60001C16.8299 4.54071 13.5392 1.25 9.47989 1.25C5.4206 1.25 2.12988 4.54071 2.12988 8.60001C2.12988 12.6593 5.4206 15.95 9.47989 15.95Z" stroke="black" stroke-width="1.5" stroke-linecap="round" stroke-linejoin="round"/>
<path d="M3.5 13L1 17.27L3.95001 17.11L5.29001 19.74L7.5 16C5.83 15.57 4.49 14.36 3.5 13Z" stroke="black" stroke-width="1.5" stroke-linecap="round" stroke-linejoin="round"/>
<path d="M15.5 13C14.52 14.37 13.17 15.56 11.5 16L13.71 19.75L15.05 17.12L18 17.28L15.5 13Z" stroke="black" stroke-width="1.5" stroke-linecap="round" stroke-linejoin="round"/>
<path d="M13.68 7.66999C13.87 7.48999 13.76 7.15998 13.5 7.12998L11.09 6.77998C10.99 6.75998 10.9 6.69998 10.85 6.59998L9.76996 4.40998C9.64996 4.16998 9.30999 4.16998 9.19999 4.40998L8.11997 6.59998C8.06997 6.68998 7.97998 6.75998 7.87998 6.77998L5.46998 7.12998C5.20998 7.16998 5.10998 7.48999 5.28998 7.66999L7.03998 9.36997C7.11998 9.44997 7.14998 9.54997 7.12998 9.64997L6.71998 12.05C6.66998 12.31 6.94997 12.51 7.17997 12.38L9.33997 11.25C9.42997 11.2 9.54999 11.2 9.63999 11.25L11.8 12.38C12.03 12.5 12.31 12.3 12.26 12.05L11.85 9.64997C11.83 9.54997 11.87 9.43997 11.94 9.36997L13.68 7.66999Z" stroke="black" stroke-width="1.5" stroke-linecap="round" stroke-linejoin="round"/>
</svg>
