<svg width="19" height="21" viewBox="0 0 19 21" fill="none" xmlns="http://www.w3.org/2000/svg">
<path d="M9.47989 15.95C13.5392 15.95 16.8299 12.6593 16.8299 8.60001C16.8299 4.54071 13.5392 1.25 9.47989 1.25C5.4206 1.25 2.12988 4.54071 2.12988 8.60001C2.12988 12.6593 5.4206 15.95 9.47989 15.95Z" stroke="black" stroke-width="1.5" stroke-linecap="round" stroke-linejoin="round"/>
<path d="M3.5 13L1 17.27L3.95001 17.11L5.29001 19.74L7.5 16C5.83 15.57 4.49 14.36 3.5 13Z" stroke="black" stroke-width="1.5" stroke-linecap="round" stroke-linejoin="round"/>
<path d="M15.5 13C14.52 14.37 13.17 15.56 11.5 16L13.71 19.75L15.05 17.12L18 17.28L15.5 13Z" stroke="black" stroke-width="1.5" stroke-linecap="round" stroke-linejoin="round"/>
<path d="M13.6805 7.66999C13.8705 7.48999 13.7605 7.15998 13.5005 7.12998L11.0905 6.77998C10.9905 6.75998 10.9005 6.69998 10.8505 6.59998L9.77045 4.40998C9.65045 4.16998 9.31047 4.16998 9.20047 4.40998L8.12046 6.59998C8.07046 6.68998 7.98047 6.75998 7.88047 6.77998L5.47046 7.12998C5.21046 7.16998 5.11047 7.48999 5.29047 7.66999L7.04047 9.36997C7.12047 9.44997 7.15047 9.54997 7.13047 9.64997L6.72046 12.05C6.67046 12.31 6.95046 12.51 7.18046 12.38L9.34046 11.25C9.43046 11.2 9.55048 11.2 9.64048 11.25L11.8005 12.38C12.0305 12.5 12.3105 12.3 12.2605 12.05L11.8505 9.64997C11.8305 9.54997 11.8705 9.43997 11.9405 9.36997L13.6805 7.66999Z" stroke="black" stroke-width="1.5" stroke-linecap="round" stroke-linejoin="round"/>
</svg>
