<svg width="25" height="25" viewBox="0 0 25 25" fill="none" xmlns="http://www.w3.org/2000/svg">
<path d="M3.85645 6.5H5.85645H21.8564" stroke="#A30D11" stroke-width="2" stroke-linecap="round" stroke-linejoin="round"/>
<path d="M8.85645 6.5V4.5C8.85645 3.96957 9.06716 3.46086 9.44223 3.08579C9.8173 2.71071 10.326 2.5 10.8564 2.5H14.8564C15.3869 2.5 15.8956 2.71071 16.2707 3.08579C16.6457 3.46086 16.8564 3.96957 16.8564 4.5V6.5M19.8564 6.5V20.5C19.8564 21.0304 19.6457 21.5391 19.2707 21.9142C18.8956 22.2893 18.3869 22.5 17.8564 22.5H7.85645C7.32601 22.5 6.8173 22.2893 6.44223 21.9142C6.06716 21.5391 5.85645 21.0304 5.85645 20.5V6.5H19.8564Z" stroke="#A30D11" stroke-width="2" stroke-linecap="round" stroke-linejoin="round"/>
<path d="M10.8564 11.5V17.5" stroke="#A30D11" stroke-width="2" stroke-linecap="round" stroke-linejoin="round"/>
<path d="M14.8564 11.5V17.5" stroke="#A30D11" stroke-width="2" stroke-linecap="round" stroke-linejoin="round"/>
</svg>
