<svg width="25" height="25" viewBox="0 0 25 25" fill="none" xmlns="http://www.w3.org/2000/svg">
<path d="M3.83398 6.12646H5.83398H21.834" stroke="#A30D11" stroke-width="2" stroke-linecap="round" stroke-linejoin="round"/>
<path d="M8.83398 6.12646V4.12646C8.83398 3.59603 9.0447 3.08732 9.41977 2.71225C9.79484 2.33718 10.3036 2.12646 10.834 2.12646H14.834C15.3644 2.12646 15.8731 2.33718 16.2482 2.71225C16.6233 3.08732 16.834 3.59603 16.834 4.12646V6.12646M19.834 6.12646V20.1265C19.834 20.6569 19.6233 21.1656 19.2482 21.5407C18.8731 21.9158 18.3644 22.1265 17.834 22.1265H7.83398C7.30355 22.1265 6.79484 21.9158 6.41977 21.5407C6.0447 21.1656 5.83398 20.6569 5.83398 20.1265V6.12646H19.834Z" stroke="#A30D11" stroke-width="2" stroke-linecap="round" stroke-linejoin="round"/>
<path d="M10.834 11.1265V17.1265" stroke="#A30D11" stroke-width="2" stroke-linecap="round" stroke-linejoin="round"/>
<path d="M14.834 11.1265V17.1265" stroke="#A30D11" stroke-width="2" stroke-linecap="round" stroke-linejoin="round"/>
</svg>
