<svg width="25" height="25" viewBox="0 0 25 25" fill="none" xmlns="http://www.w3.org/2000/svg">
<path d="M3.85742 6.5H5.85742H21.8574" stroke="#A30D11" stroke-width="2" stroke-linecap="round" stroke-linejoin="round"/>
<path d="M8.85742 6.5V4.5C8.85742 3.96957 9.06814 3.46086 9.44321 3.08579C9.81828 2.71071 10.327 2.5 10.8574 2.5H14.8574C15.3879 2.5 15.8966 2.71071 16.2716 3.08579C16.6467 3.46086 16.8574 3.96957 16.8574 4.5V6.5M19.8574 6.5V20.5C19.8574 21.0304 19.6467 21.5391 19.2716 21.9142C18.8966 22.2893 18.3879 22.5 17.8574 22.5H7.85742C7.32699 22.5 6.81828 22.2893 6.44321 21.9142C6.06814 21.5391 5.85742 21.0304 5.85742 20.5V6.5H19.8574Z" stroke="#A30D11" stroke-width="2" stroke-linecap="round" stroke-linejoin="round"/>
<path d="M10.8574 11.5V17.5" stroke="#A30D11" stroke-width="2" stroke-linecap="round" stroke-linejoin="round"/>
<path d="M14.8574 11.5V17.5" stroke="#A30D11" stroke-width="2" stroke-linecap="round" stroke-linejoin="round"/>
</svg>
