<svg width="25" height="25" viewBox="0 0 25 25" fill="none" xmlns="http://www.w3.org/2000/svg">
<path d="M3.83398 6.12695H5.83398H21.834" stroke="#A30D11" stroke-width="2" stroke-linecap="round" stroke-linejoin="round"/>
<path d="M8.83398 6.12695V4.12695C8.83398 3.59652 9.0447 3.08781 9.41977 2.71274C9.79484 2.33767 10.3036 2.12695 10.834 2.12695H14.834C15.3644 2.12695 15.8731 2.33767 16.2482 2.71274C16.6233 3.08781 16.834 3.59652 16.834 4.12695V6.12695M19.834 6.12695V20.127C19.834 20.6574 19.6233 21.1661 19.2482 21.5412C18.8731 21.9162 18.3644 22.127 17.834 22.127H7.83398C7.30355 22.127 6.79484 21.9162 6.41977 21.5412C6.0447 21.1661 5.83398 20.6574 5.83398 20.127V6.12695H19.834Z" stroke="#A30D11" stroke-width="2" stroke-linecap="round" stroke-linejoin="round"/>
<path d="M10.834 11.127V17.127" stroke="#A30D11" stroke-width="2" stroke-linecap="round" stroke-linejoin="round"/>
<path d="M14.834 11.127V17.127" stroke="#A30D11" stroke-width="2" stroke-linecap="round" stroke-linejoin="round"/>
</svg>
