<svg width="15" height="21" viewBox="0 0 15 21" fill="none" xmlns="http://www.w3.org/2000/svg">
<path d="M7.45 0.0869141C3.34 0.0869141 0 3.42691 0 7.53691C0 12.4269 6.18 19.3469 6.44 19.6369C6.7 19.9269 7.07 20.0869 7.45 20.0869C7.83 20.0869 8.19999 19.9269 8.45999 19.6369C9.11999 18.9069 14.9 12.3169 14.9 7.53691C14.9 3.42691 11.56 0.0869141 7.45 0.0869141ZM4.33 7.53691C4.33 5.81691 5.73 4.41692 7.45 4.41692C9.17 4.41692 10.57 5.81691 10.57 7.53691C10.57 9.25691 9.17 10.6569 7.45 10.6569C5.73 10.6569 4.33 9.25691 4.33 7.53691Z" fill="#7E0000"/>
</svg>
